# xmcd
#
# Track frame offsets: 
#        150
#        16033
#        27241
#        41313
#        55568
#        76712
#        94590
#        111501
#        129897
#        143026
#        157521
#        174071
#        187261
#
# Disc length: 2655 seconds
#
# Revision: 4
# Processed by: cddbd v1.5.2PL0 Copyright (c) Steve Scherf et al.
# Submitted via: ExactAudioCopy v1.5
#
DISCID=870a5d0d
DTITLE=Huub van der Lubbe - Concordia
DYEAR=2004
DGENRE=Chanson
TTITLE0=Chinatown
TTITLE1=Nog even
TTITLE2=Iemand als jij
TTITLE3=Geregeld leven
TTITLE4=Mooier dan nu
TTITLE5=Mijn hart kan dat niet aan
TTITLE6=Geef me het zout
TTITLE7=Recht door zee
TTITLE8=Tegen de tijd
TTITLE9=Waar zijn de sterren aan de hemel
TTITLE10=Morgen begin ik meteen
TTITLE11=Geld maakt niet gelukkig
TTITLE12=Dinsdagavond dichtersavond
EXTD=
EXTT0=
EXTT1=
EXTT2=
EXTT3=
EXTT4=
EXTT5=
EXTT6=
EXTT7=
EXTT8=
EXTT9=
EXTT10=
EXTT11=
EXTT12=
PLAYORDER=
